# xmcd CD database file
#
# Track frame offsets:
#	187
#	31955
#	64095
#	99235
#	139577
#	172132
#
# Disc length: 2553 seconds
#
# Revision: 0
# Processed by: cddbd v1.4PL0 Copyright (c) Steve Scherf et al.
# Submitted via: CDex 1.50
#
DISCID=4a09f706
DTITLE=Webster Young - For Lady
DYEAR=1957
DGENRE=Jazz
TTITLE0=The Lady
TTITLE1=God Bless The Child
TTITLE2=Moanin' Low
TTITLE3=Good Morning Heartache
TTITLE4=Don't Explain
TTITLE5=Strange Fruit
EXTD=YEAR: 1957
EXTT0=
EXTT1=
EXTT2=
EXTT3=
EXTT4=
EXTT5=
PLAYORDER=
